<?xml version="1.0"?>
<!DOCTYPE svg PUBLIC "-//W3C//DTD SVG 1.1//EN"
  "http://www.w3.org/Graphics/SVG/1.1/DTD/svg11.dtd">

<svg xmlns="http://www.w3.org/2000/svg" version="1.1"
      width="210" height="210" viewBox="0 0 210 210 ">
  <!-- bkg  -->
  <g stroke="black" stroke-width="10">
    <rect x="5" y="5" width="190" height="190" fill="#bbb"  />
  </g>
  <!-- up  -->
  <g  stroke="black" stroke-width="2">
    <rect x="10" y="10" width="60" height="60" fill="#ff0" />
    <rect x="70" y="10" width="60" height="60" fill="#ff0" />
    <rect x="130" y="10" width="60" height="60" fill="#ff0" />
    <rect x="10" y="70" width="60" height="60" fill="#ff0" />
    <rect x="70" y="70" width="60" height="60" fill="#ff0" />
    <rect x="130" y="70" width="60" height="60" fill="#ff0" />
    <rect x="10" y="130" width="60" height="60" fill="#ff0" />
    <rect x="70" y="130" width="60" height="60" fill="#ff0" />
    <rect x="130" y="130" width="60" height="60" fill="#ff0" />
  </g>
  <!-- sides  -->
  <g  stroke="black" stroke-width="2">
    <rect x="10" y="1" width="60" height="9" fill="#bbb" />
    <rect x="70" y="1" width="60" height="9" fill="none" />
    <rect x="130" y="1" width="60" height="9" fill="#bbb" />

    <rect x="1" y="10" width="9" height="60" fill="#bbb" />
    <rect x="1" y="70" width="9" height="60" fill="none" />
    <rect x="1" y="130" width="9" height="60" fill="none" />

    <rect x="190" y="10" width="9" height="60" fill="#bbb" />
    <rect x="190" y="70" width="9" height="60" fill="#bbb" />
    <rect x="190" y="130" width="9" height="60" fill="none" />

    <rect x="10" y="190" width="60" height="9" fill="none" />
    <rect x="70" y="190" width="60" height="9" fill="#bbb" />
    <rect x="130" y="190" width="60" height="9" fill="none" />
  </g>
</svg>